<svg width="107" height="33" viewBox="0 0 107 33" fill="none" xmlns="http://www.w3.org/2000/svg">
<path d="M7.30684 19.8457C5.52431 19.8457 4.02606 19.3694 2.8121 18.4167C1.62886 17.4486 1.03725 16.0656 1.03725 14.2677H3.80324C3.80324 15.0053 4.00301 15.6199 4.40254 16.1117C5.10941 16.9107 6.13129 17.3103 7.46819 17.3103C8.42092 17.3103 9.15852 17.1182 9.68099 16.734C10.2188 16.3498 10.4877 15.8427 10.4877 15.2127C10.4877 14.6288 10.2342 14.1908 9.72709 13.8989C9.21999 13.5762 8.29799 13.1613 6.96109 12.6542L6.75364 12.585L6.38484 12.4467C4.61768 11.7706 3.35761 11.1252 2.60465 10.5105C1.85168 9.86511 1.4752 8.93543 1.4752 7.72147C1.4752 6.29237 1.98998 5.15524 3.01955 4.31007C4.06448 3.44954 5.48589 3.01927 7.28379 3.01927C9.15852 3.01927 10.626 3.48027 11.6863 4.40227C12.7466 5.3089 13.2768 6.66117 13.2768 8.45906H10.5108C10.5108 7.49097 10.2111 6.76873 9.61184 6.29237C9.0279 5.80063 8.24421 5.55477 7.26074 5.55477C6.35411 5.55477 5.62419 5.73917 5.07099 6.10797C4.53316 6.47677 4.26424 6.94545 4.26424 7.51402C4.26424 8.15941 4.50243 8.6281 4.97879 8.92006C5.47053 9.21203 6.39253 9.60388 7.74479 10.0956L8.06749 10.2109C8.88192 10.4875 9.57342 10.7564 10.142 11.0176C10.6645 11.2481 11.21 11.5554 11.7785 11.9396C12.8696 12.6772 13.4151 13.7221 13.4151 15.0744C13.4151 16.5189 12.8772 17.6791 11.8016 18.555C10.7413 19.4155 9.24304 19.8457 7.30684 19.8457ZM26.3139 14.1755V8.68956C26.3139 7.7522 25.9989 6.99923 25.3688 6.43067C24.7388 5.84673 23.8629 5.55477 22.7411 5.55477C21.6194 5.55477 20.7435 5.84673 20.1134 6.43067C19.4834 6.99923 19.1684 7.7522 19.1684 8.68956V14.1755C19.1684 15.1128 19.4834 15.8735 20.1134 16.4574C20.7435 17.026 21.6194 17.3103 22.7411 17.3103C23.8629 17.3103 24.7388 17.026 25.3688 16.4574C25.9989 15.8735 26.3139 15.1128 26.3139 14.1755ZM16.4024 14.0372V8.82786C16.4024 7.02997 16.971 5.61623 18.1081 4.58667C19.2452 3.54174 20.7896 3.01927 22.7411 3.01927C24.6927 3.01927 26.237 3.54174 27.3742 4.58667C28.5113 5.61623 29.0799 7.02997 29.0799 8.82786V14.0372C29.0799 15.8351 28.5113 17.2565 27.3742 18.3014C26.237 19.331 24.6927 19.8457 22.7411 19.8457C20.7896 19.8457 19.2452 19.331 18.1081 18.3014C16.971 17.2565 16.4024 15.8351 16.4024 14.0372ZM35.5438 19.5H32.7778V3.36502H43.2655V5.78527H35.5438V10.4183H42.1591V12.7233H35.5438V19.5ZM52.0928 19.5H49.3268V5.78527H44.6476V3.36502H56.7719V5.78527H52.0928V19.5ZM71.1644 8.27466L67.4764 14.2907H65.7016L61.9905 8.27466V19.5H59.3167V3.36502H61.9905L66.6236 10.9024L71.2566 3.36502H73.8382V19.5H71.1644V8.27466ZM78.9224 19.5H76.3638V18.578L82.1263 3.36502H84.8462L90.6087 18.578V19.5H87.8888L86.4597 15.5124H80.3745L78.9224 19.5ZM83.4402 7.05302L81.2043 13.2074H85.6299L83.4402 7.05302ZM94.4166 19.5H91.7659V18.578L96.8138 11.1559L92.1577 4.28702V3.36502H94.9698L98.5426 8.98921L102.277 3.36502H104.927V4.28702L100.225 11.1329L105.319 18.578V19.5H102.507L98.4734 13.3687L94.4166 19.5Z" fill="url(#paint0_linear_4759_23672)"/>
<path d="M5.93479 27.3596C5.93479 28.2672 5.6817 28.9974 5.17552 29.5501C4.67515 30.1028 4.00315 30.3792 3.15952 30.3792C2.31588 30.3792 1.64097 30.1028 1.13479 29.5501C0.628608 28.9974 0.375517 28.2672 0.375517 27.3596C0.375517 26.4461 0.625699 25.713 1.12606 25.1603C1.63224 24.6076 2.30715 24.3312 3.15079 24.3312C4.00606 24.3312 4.68388 24.6076 5.18425 25.1603C5.68461 25.7072 5.93479 26.4403 5.93479 27.3596ZM1.5537 27.3596C1.5537 27.9763 1.69915 28.465 1.99006 28.8258C2.28097 29.1865 2.67079 29.3668 3.15952 29.3668C3.65406 29.3668 4.04388 29.1894 4.32897 28.8345C4.61406 28.4738 4.75661 27.9821 4.75661 27.3596C4.75661 26.737 4.61406 26.2454 4.32897 25.8847C4.04388 25.5239 3.65115 25.3436 3.15079 25.3436C2.65624 25.3436 2.26643 25.5239 1.98134 25.8847C1.69624 26.2454 1.5537 26.737 1.5537 27.3596ZM11.5085 30.3181H10.4089V24.4359H11.6569L13.0707 26.8883C13.3034 27.2898 13.51 27.665 13.6903 28.0141C13.8765 28.3574 14.0016 28.6018 14.0656 28.7472L14.1616 28.9654C14.1151 28.4825 14.0918 27.7901 14.0918 26.8883V24.4359H15.2002V30.3181H13.9434L12.5122 27.8745C12.2852 27.4905 12.0787 27.1239 11.8925 26.7748C11.7122 26.4199 11.5871 26.1639 11.5172 26.0068L11.4125 25.7625C11.4765 26.3152 11.5085 27.0163 11.5085 27.8658V30.3181ZM23.3032 30.3181H19.9083V24.4359H21.008V29.3407H23.3032V30.3181ZM28.796 30.3181H27.6963V24.4359H28.796V30.3181ZM34.6801 30.3181H33.5805V24.4359H34.8285L36.2423 26.8883C36.475 27.2898 36.6816 27.665 36.8619 28.0141C37.0481 28.3574 37.1732 28.6018 37.2372 28.7472L37.3332 28.9654C37.2867 28.4825 37.2634 27.7901 37.2634 26.8883V24.4359H38.3717V30.3181H37.115L35.6837 27.8745C35.4568 27.4905 35.2503 27.1239 35.0641 26.7748C34.8837 26.4199 34.7587 26.1639 34.6888 26.0068L34.5841 25.7625C34.6481 26.3152 34.6801 27.0163 34.6801 27.8658V30.3181ZM46.5883 30.3181H43.0799V24.4359H46.5534V25.3348H44.1883V26.9319H46.2915V27.8221H44.1883V29.4192H46.5883V30.3181Z" fill="#121212"/>
<path d="M59.4359 28.6687C59.4359 29.1923 59.2468 29.6112 58.8686 29.9254C58.4962 30.2338 58.0046 30.3879 57.3937 30.3879C56.7304 30.3879 56.1806 30.2628 55.7442 30.0127V28.8868C56.2446 29.2476 56.7915 29.4279 57.3849 29.4279C57.6526 29.4279 57.8679 29.3639 58.0308 29.2359C58.1937 29.1021 58.2751 28.9247 58.2751 28.7036C58.2751 28.5988 58.2548 28.5058 58.214 28.4243C58.1733 28.3428 58.0889 28.2614 57.9609 28.1799C57.8388 28.0985 57.7428 28.0403 57.6729 28.0054C57.6089 27.9705 57.4722 27.9065 57.2628 27.8134C57.2046 27.7843 57.1609 27.7639 57.1319 27.7523C56.9166 27.6534 56.742 27.5661 56.6082 27.4905C56.4744 27.409 56.3289 27.3014 56.1719 27.1676C56.0148 27.0338 55.8955 26.8738 55.814 26.6876C55.7384 26.5014 55.7006 26.289 55.7006 26.0505C55.7006 25.5501 55.8839 25.1487 56.2504 24.8461C56.6228 24.5436 57.1144 24.3923 57.7253 24.3923C58.278 24.3923 58.7551 24.4883 59.1566 24.6803V25.745C58.7202 25.4832 58.2548 25.3523 57.7602 25.3523C57.4868 25.3523 57.2715 25.4134 57.1144 25.5356C56.9631 25.6578 56.8875 25.8148 56.8875 26.0068C56.8875 26.1988 56.9689 26.3588 57.1319 26.4868C57.3006 26.609 57.5508 26.7458 57.8824 26.897C58.1151 27.0018 58.3042 27.0948 58.4497 27.1763C58.5951 27.2519 58.7522 27.3596 58.9209 27.4992C59.0955 27.6388 59.2235 27.8076 59.3049 28.0054C59.3922 28.1974 59.4359 28.4185 59.4359 28.6687ZM68.1856 30.0388C67.8249 30.2716 67.3187 30.3879 66.6671 30.3879C65.7944 30.3879 65.0729 30.1145 64.5027 29.5676C63.9384 29.0148 63.6562 28.2847 63.6562 27.377C63.6562 26.4868 63.9355 25.7625 64.494 25.2039C65.0584 24.6396 65.7827 24.3574 66.6671 24.3574C67.3129 24.3574 67.8162 24.465 68.1769 24.6803V25.7538C67.7347 25.4978 67.246 25.3698 66.7107 25.3698C66.1755 25.3698 65.7275 25.553 65.3667 25.9196C65.0118 26.2803 64.8344 26.7661 64.8344 27.377C64.8344 27.9879 65.0118 28.4738 65.3667 28.8345C65.7275 29.1952 66.1958 29.3756 66.7718 29.3756C67.3245 29.3756 67.7958 29.2301 68.1856 28.9392V30.0388ZM77.3264 30.3181H76.218V27.8483H73.8005V30.3181H72.7009V24.4359H73.8005V26.897H76.218V24.4359H77.3264V30.3181ZM87.362 27.3596C87.362 28.2672 87.109 28.9974 86.6028 29.5501C86.1024 30.1028 85.4304 30.3792 84.5868 30.3792C83.7431 30.3792 83.0682 30.1028 82.562 29.5501C82.0559 28.9974 81.8028 28.2672 81.8028 27.3596C81.8028 26.4461 82.053 25.713 82.5533 25.1603C83.0595 24.6076 83.7344 24.3312 84.578 24.3312C85.4333 24.3312 86.1111 24.6076 86.6115 25.1603C87.1119 25.7072 87.362 26.4403 87.362 27.3596ZM82.981 27.3596C82.981 27.9763 83.1264 28.465 83.4173 28.8258C83.7082 29.1865 84.098 29.3668 84.5868 29.3668C85.0813 29.3668 85.4711 29.1894 85.7562 28.8345C86.0413 28.4738 86.1839 27.9821 86.1839 27.3596C86.1839 26.737 86.0413 26.2454 85.7562 25.8847C85.4711 25.5239 85.0784 25.3436 84.578 25.3436C84.0835 25.3436 83.6937 25.5239 83.4086 25.8847C83.1235 26.2454 82.981 26.737 82.981 27.3596ZM97.1598 27.3596C97.1598 28.2672 96.9067 28.9974 96.4005 29.5501C95.9001 30.1028 95.2281 30.3792 94.3845 30.3792C93.5409 30.3792 92.866 30.1028 92.3598 29.5501C91.8536 28.9974 91.6005 28.2672 91.6005 27.3596C91.6005 26.4461 91.8507 25.713 92.351 25.1603C92.8572 24.6076 93.5321 24.3312 94.3758 24.3312C95.231 24.3312 95.9089 24.6076 96.4092 25.1603C96.9096 25.7072 97.1598 26.4403 97.1598 27.3596ZM92.7787 27.3596C92.7787 27.9763 92.9241 28.465 93.215 28.8258C93.506 29.1865 93.8958 29.3668 94.3845 29.3668C94.879 29.3668 95.2689 29.1894 95.554 28.8345C95.839 28.4738 95.9816 27.9821 95.9816 27.3596C95.9816 26.737 95.839 26.2454 95.554 25.8847C95.2689 25.5239 94.8761 25.3436 94.3758 25.3436C93.8812 25.3436 93.4914 25.5239 93.2063 25.8847C92.9212 26.2454 92.7787 26.737 92.7787 27.3596ZM105.029 30.3181H101.634V24.4359H102.734V29.3407H105.029V30.3181Z" fill="#121212"/>
<defs>
<linearGradient id="paint0_linear_4759_23672" x1="0" y1="12.1" x2="106.182" y2="12.1" gradientUnits="userSpaceOnUse">
<stop stop-color="#F5254F"/>
<stop offset="1" stop-color="#FAA44B"/>
</linearGradient>
</defs>
</svg>
